# xmcd
#
# Track frame offsets:
#	182
#	19265
#	42657
#	61360
#	81205
#	97145
#	113042
#	125947
#	146092
#	161352
#
# Disc length: 2439 seconds
#
# Revision: 0
# Processed by: cddbd v1.5.2PL0 Copyright (c) Steve Scherf et al.
# Submitted via: audiograbber 1.81.03
#
DISCID=9109850a
DTITLE=Will T. Massey - Will T. Massey
DYEAR=1991
DGENRE=Pop
TTITLE0=Ain't Here
TTITLE1=Send Up The Smoke
TTITLE2=It's Midnight All Day Long
TTITLE3=You Take The Town
TTITLE4=Barbed Wire Town
TTITLE5=Coffee Break
TTITLE6=Highway Hearse
TTITLE7=The Bravery To Weep
TTITLE8=Homeless Heart
TTITLE9=A Summertime Graveyard
EXTD=
EXTT0=
EXTT1=
EXTT2=
EXTT3=
EXTT4=
EXTT5=
EXTT6=
EXTT7=
EXTT8=
EXTT9=
PLAYORDER=
